<mxfile host="app.diagrams.net" agent="Mozilla/5.0 (Macintosh; Intel Mac OS X 10_15_7) AppleWebKit/605.1.15 (KHTML, like Gecko) Version/18.5 Safari/605.1.15" version="28.1.1">
  <diagram name="Page-1" id="2kgTSxebcbPdOBfTretX">
    <mxGraphModel dx="1081" dy="1845" grid="1" gridSize="10" guides="1" tooltips="1" connect="1" arrows="1" fold="1" page="1" pageScale="1" pageWidth="827" pageHeight="1169" math="0" shadow="0">
      <root>
        <mxCell id="0" />
        <mxCell id="1" parent="0" />
        <mxCell id="G_wZUzPdZcBl1CGrVRkh-7" value="" style="edgeStyle=orthogonalEdgeStyle;rounded=0;orthogonalLoop=1;jettySize=auto;html=1;" parent="1" source="G_wZUzPdZcBl1CGrVRkh-1" target="G_wZUzPdZcBl1CGrVRkh-6" edge="1">
          <mxGeometry relative="1" as="geometry" />
        </mxCell>
        <mxCell id="G_wZUzPdZcBl1CGrVRkh-1" value="start" style="ellipse;whiteSpace=wrap;html=1;" parent="1" vertex="1">
          <mxGeometry x="319" y="-1140" width="190" height="50" as="geometry" />
        </mxCell>
        <mxCell id="G_wZUzPdZcBl1CGrVRkh-76" style="edgeStyle=orthogonalEdgeStyle;rounded=0;orthogonalLoop=1;jettySize=auto;html=1;exitX=0.5;exitY=1;exitDx=0;exitDy=0;entryX=0.5;entryY=0;entryDx=0;entryDy=0;" parent="1" source="G_wZUzPdZcBl1CGrVRkh-2" target="G_wZUzPdZcBl1CGrVRkh-74" edge="1">
          <mxGeometry relative="1" as="geometry" />
        </mxCell>
        <mxCell id="rgFFl2RwI1l4uznSu4kI-50" style="edgeStyle=orthogonalEdgeStyle;rounded=0;orthogonalLoop=1;jettySize=auto;html=1;exitX=0;exitY=0.5;exitDx=0;exitDy=0;entryX=0;entryY=0.5;entryDx=0;entryDy=0;" parent="1" source="G_wZUzPdZcBl1CGrVRkh-2" target="rgFFl2RwI1l4uznSu4kI-42" edge="1">
          <mxGeometry relative="1" as="geometry">
            <Array as="points">
              <mxPoint x="90" y="-495" />
              <mxPoint x="90" y="1180" />
            </Array>
          </mxGeometry>
        </mxCell>
        <mxCell id="G_wZUzPdZcBl1CGrVRkh-2" value="ตรวจสอบ&lt;div&gt;ต้องการเล่นคือ&amp;nbsp;&lt;/div&gt;&lt;div&gt;= &quot; ชๅ ๙+ =1 +1 &quot;&lt;/div&gt;&lt;div&gt;ไม่ต้องการเล่นคือ&lt;/div&gt;&lt;div&gt;= &quot; ขๅ ๘ๅ -1 _1 &quot;&lt;/div&gt;" style="rhombus;whiteSpace=wrap;html=1;" parent="1" vertex="1">
          <mxGeometry x="305" y="-590" width="217" height="190" as="geometry" />
        </mxCell>
        <mxCell id="G_wZUzPdZcBl1CGrVRkh-5" value="ไม่ต้องการเล่น" style="text;html=1;align=center;verticalAlign=middle;resizable=0;points=[];autosize=1;strokeColor=none;fillColor=none;" parent="1" vertex="1">
          <mxGeometry x="200" y="-580" width="90" height="30" as="geometry" />
        </mxCell>
        <mxCell id="G_wZUzPdZcBl1CGrVRkh-13" style="edgeStyle=orthogonalEdgeStyle;rounded=0;orthogonalLoop=1;jettySize=auto;html=1;exitX=0.5;exitY=1;exitDx=0;exitDy=0;entryX=0.5;entryY=0;entryDx=0;entryDy=0;" parent="1" source="G_wZUzPdZcBl1CGrVRkh-6" target="G_wZUzPdZcBl1CGrVRkh-12" edge="1">
          <mxGeometry relative="1" as="geometry" />
        </mxCell>
        <mxCell id="G_wZUzPdZcBl1CGrVRkh-6" value="แสดงค่า ต้องการเล่นเกม +1 ไม่ต้องการเล่นเกม +1" style="shape=parallelogram;perimeter=parallelogramPerimeter;whiteSpace=wrap;html=1;fixedSize=1;" parent="1" vertex="1">
          <mxGeometry x="271" y="-1040" width="286" height="60" as="geometry" />
        </mxCell>
        <mxCell id="G_wZUzPdZcBl1CGrVRkh-16" style="edgeStyle=orthogonalEdgeStyle;rounded=0;orthogonalLoop=1;jettySize=auto;html=1;exitX=0.5;exitY=1;exitDx=0;exitDy=0;entryX=0.5;entryY=0;entryDx=0;entryDy=0;" parent="1" source="G_wZUzPdZcBl1CGrVRkh-8" target="G_wZUzPdZcBl1CGrVRkh-2" edge="1">
          <mxGeometry relative="1" as="geometry" />
        </mxCell>
        <mxCell id="rgFFl2RwI1l4uznSu4kI-61" style="edgeStyle=orthogonalEdgeStyle;rounded=0;orthogonalLoop=1;jettySize=auto;html=1;exitX=0;exitY=0.5;exitDx=0;exitDy=0;" parent="1" source="G_wZUzPdZcBl1CGrVRkh-8" target="G_wZUzPdZcBl1CGrVRkh-19" edge="1">
          <mxGeometry relative="1" as="geometry" />
        </mxCell>
        <mxCell id="G_wZUzPdZcBl1CGrVRkh-8" value="ตรวจสอบว่าผู้ใช้&amp;nbsp;&lt;div&gt;กรอก ตามที่กำหนดกรอกไหม&lt;/div&gt;" style="rhombus;whiteSpace=wrap;html=1;" parent="1" vertex="1">
          <mxGeometry x="338" y="-820" width="151" height="150" as="geometry" />
        </mxCell>
        <mxCell id="G_wZUzPdZcBl1CGrVRkh-70" style="edgeStyle=orthogonalEdgeStyle;rounded=0;orthogonalLoop=1;jettySize=auto;html=1;exitX=0.5;exitY=1;exitDx=0;exitDy=0;entryX=0.5;entryY=0;entryDx=0;entryDy=0;" parent="1" source="G_wZUzPdZcBl1CGrVRkh-10" target="G_wZUzPdZcBl1CGrVRkh-8" edge="1">
          <mxGeometry relative="1" as="geometry" />
        </mxCell>
        <mxCell id="G_wZUzPdZcBl1CGrVRkh-10" value="รับค่า &quot; +1 , =1 , -1 , &amp;nbsp;_1 , ชๅ , ๙+ , ขๅ , ๘ๅ&#39;" style="shape=parallelogram;perimeter=parallelogramPerimeter;whiteSpace=wrap;html=1;fixedSize=1;" parent="1" vertex="1">
          <mxGeometry x="259" y="-900" width="310" height="60" as="geometry" />
        </mxCell>
        <mxCell id="G_wZUzPdZcBl1CGrVRkh-14" style="edgeStyle=orthogonalEdgeStyle;rounded=0;orthogonalLoop=1;jettySize=auto;html=1;exitX=0.5;exitY=1;exitDx=0;exitDy=0;entryX=0.5;entryY=0;entryDx=0;entryDy=0;" parent="1" source="G_wZUzPdZcBl1CGrVRkh-12" target="G_wZUzPdZcBl1CGrVRkh-10" edge="1">
          <mxGeometry relative="1" as="geometry" />
        </mxCell>
        <mxCell id="G_wZUzPdZcBl1CGrVRkh-12" value="" style="ellipse;whiteSpace=wrap;html=1;aspect=fixed;" parent="1" vertex="1">
          <mxGeometry x="404" y="-944" width="20" height="20" as="geometry" />
        </mxCell>
        <mxCell id="rgFFl2RwI1l4uznSu4kI-62" style="edgeStyle=orthogonalEdgeStyle;rounded=0;orthogonalLoop=1;jettySize=auto;html=1;exitX=0.5;exitY=0;exitDx=0;exitDy=0;entryX=0;entryY=0.5;entryDx=0;entryDy=0;" parent="1" source="G_wZUzPdZcBl1CGrVRkh-19" target="G_wZUzPdZcBl1CGrVRkh-12" edge="1">
          <mxGeometry relative="1" as="geometry" />
        </mxCell>
        <mxCell id="G_wZUzPdZcBl1CGrVRkh-19" value="กรุณกรอกอีกครับ" style="shape=parallelogram;perimeter=parallelogramPerimeter;whiteSpace=wrap;html=1;fixedSize=1;" parent="1" vertex="1">
          <mxGeometry x="100" y="-775" width="120" height="60" as="geometry" />
        </mxCell>
        <mxCell id="G_wZUzPdZcBl1CGrVRkh-23" value="flase" style="text;html=1;align=center;verticalAlign=middle;resizable=0;points=[];autosize=1;strokeColor=none;fillColor=none;" parent="1" vertex="1">
          <mxGeometry x="512" y="-780" width="50" height="30" as="geometry" />
        </mxCell>
        <mxCell id="G_wZUzPdZcBl1CGrVRkh-24" value="True" style="text;html=1;align=center;verticalAlign=middle;resizable=0;points=[];autosize=1;strokeColor=none;fillColor=none;" parent="1" vertex="1">
          <mxGeometry x="425" y="-682" width="50" height="30" as="geometry" />
        </mxCell>
        <mxCell id="G_wZUzPdZcBl1CGrVRkh-25" value="ต้องการเล่น" style="text;html=1;align=center;verticalAlign=middle;resizable=0;points=[];autosize=1;strokeColor=none;fillColor=none;" parent="1" vertex="1">
          <mxGeometry x="432" y="-440" width="80" height="30" as="geometry" />
        </mxCell>
        <mxCell id="G_wZUzPdZcBl1CGrVRkh-68" style="edgeStyle=orthogonalEdgeStyle;rounded=0;orthogonalLoop=1;jettySize=auto;html=1;exitX=0.5;exitY=1;exitDx=0;exitDy=0;entryX=0.5;entryY=0;entryDx=0;entryDy=0;" parent="1" source="G_wZUzPdZcBl1CGrVRkh-27" target="G_wZUzPdZcBl1CGrVRkh-49" edge="1">
          <mxGeometry relative="1" as="geometry" />
        </mxCell>
        <mxCell id="G_wZUzPdZcBl1CGrVRkh-27" value="สุ่มตัวเลข1-100 แล้ว&lt;div&gt;เก็บไว้ในค่าตัวแปร win_number&lt;/div&gt;" style="rounded=0;whiteSpace=wrap;html=1;" parent="1" vertex="1">
          <mxGeometry x="322" y="-120" width="184" height="50" as="geometry" />
        </mxCell>
        <mxCell id="G_wZUzPdZcBl1CGrVRkh-36" value="" style="edgeStyle=orthogonalEdgeStyle;rounded=0;orthogonalLoop=1;jettySize=auto;html=1;" parent="1" source="G_wZUzPdZcBl1CGrVRkh-33" target="G_wZUzPdZcBl1CGrVRkh-35" edge="1">
          <mxGeometry relative="1" as="geometry" />
        </mxCell>
        <mxCell id="G_wZUzPdZcBl1CGrVRkh-33" value="แสดงและรับค่า กรอกตัวเลขที่คุณทาย =" style="shape=parallelogram;perimeter=parallelogramPerimeter;whiteSpace=wrap;html=1;fixedSize=1;" parent="1" vertex="1">
          <mxGeometry x="296" y="10" width="236" height="60" as="geometry" />
        </mxCell>
        <mxCell id="rgFFl2RwI1l4uznSu4kI-20" style="edgeStyle=orthogonalEdgeStyle;rounded=0;orthogonalLoop=1;jettySize=auto;html=1;exitX=0.5;exitY=1;exitDx=0;exitDy=0;" parent="1" source="G_wZUzPdZcBl1CGrVRkh-35" target="rgFFl2RwI1l4uznSu4kI-14" edge="1">
          <mxGeometry relative="1" as="geometry" />
        </mxCell>
        <mxCell id="G_wZUzPdZcBl1CGrVRkh-35" value="เลขที่ทาย = win_number" style="rhombus;whiteSpace=wrap;html=1;" parent="1" vertex="1">
          <mxGeometry x="325.5" y="140" width="177" height="150" as="geometry" />
        </mxCell>
        <mxCell id="G_wZUzPdZcBl1CGrVRkh-72" style="edgeStyle=orthogonalEdgeStyle;rounded=0;orthogonalLoop=1;jettySize=auto;html=1;exitX=1;exitY=0.5;exitDx=0;exitDy=0;entryX=0;entryY=0.5;entryDx=0;entryDy=0;" parent="1" source="G_wZUzPdZcBl1CGrVRkh-44" target="G_wZUzPdZcBl1CGrVRkh-45" edge="1">
          <mxGeometry relative="1" as="geometry" />
        </mxCell>
        <mxCell id="rgFFl2RwI1l4uznSu4kI-28" style="edgeStyle=orthogonalEdgeStyle;rounded=0;orthogonalLoop=1;jettySize=auto;html=1;exitX=0.5;exitY=1;exitDx=0;exitDy=0;entryX=0.5;entryY=0;entryDx=0;entryDy=0;" parent="1" source="G_wZUzPdZcBl1CGrVRkh-44" target="rgFFl2RwI1l4uznSu4kI-27" edge="1">
          <mxGeometry relative="1" as="geometry" />
        </mxCell>
        <mxCell id="G_wZUzPdZcBl1CGrVRkh-44" value="ตรวจสอบ&lt;div&gt;&amp;nbsp;21 &amp;gt; winn_number &amp;lt; 50&lt;/div&gt;" style="rhombus;whiteSpace=wrap;html=1;" parent="1" vertex="1">
          <mxGeometry x="876" y="510" width="177" height="150" as="geometry" />
        </mxCell>
        <mxCell id="rgFFl2RwI1l4uznSu4kI-30" style="edgeStyle=orthogonalEdgeStyle;rounded=0;orthogonalLoop=1;jettySize=auto;html=1;exitX=0.5;exitY=1;exitDx=0;exitDy=0;" parent="1" source="G_wZUzPdZcBl1CGrVRkh-45" target="rgFFl2RwI1l4uznSu4kI-29" edge="1">
          <mxGeometry relative="1" as="geometry" />
        </mxCell>
        <mxCell id="rgFFl2RwI1l4uznSu4kI-33" style="edgeStyle=orthogonalEdgeStyle;rounded=0;orthogonalLoop=1;jettySize=auto;html=1;exitX=1;exitY=0.5;exitDx=0;exitDy=0;entryX=0.5;entryY=0;entryDx=0;entryDy=0;" parent="1" source="G_wZUzPdZcBl1CGrVRkh-45" target="rgFFl2RwI1l4uznSu4kI-31" edge="1">
          <mxGeometry relative="1" as="geometry" />
        </mxCell>
        <mxCell id="G_wZUzPdZcBl1CGrVRkh-45" value="ตรวจสอบ&lt;div&gt;51 &amp;gt; winn_number&amp;nbsp;&amp;lt; 80&lt;/div&gt;" style="rhombus;whiteSpace=wrap;html=1;" parent="1" vertex="1">
          <mxGeometry x="1099" y="510" width="177" height="150" as="geometry" />
        </mxCell>
        <mxCell id="G_wZUzPdZcBl1CGrVRkh-69" style="edgeStyle=orthogonalEdgeStyle;rounded=0;orthogonalLoop=1;jettySize=auto;html=1;exitX=0.5;exitY=1;exitDx=0;exitDy=0;" parent="1" source="G_wZUzPdZcBl1CGrVRkh-49" target="G_wZUzPdZcBl1CGrVRkh-33" edge="1">
          <mxGeometry relative="1" as="geometry" />
        </mxCell>
        <mxCell id="G_wZUzPdZcBl1CGrVRkh-49" value="" style="ellipse;whiteSpace=wrap;html=1;aspect=fixed;" parent="1" vertex="1">
          <mxGeometry x="404" y="-40" width="20" height="20" as="geometry" />
        </mxCell>
        <mxCell id="G_wZUzPdZcBl1CGrVRkh-77" style="edgeStyle=orthogonalEdgeStyle;rounded=0;orthogonalLoop=1;jettySize=auto;html=1;exitX=0.5;exitY=1;exitDx=0;exitDy=0;entryX=0.5;entryY=0;entryDx=0;entryDy=0;" parent="1" source="G_wZUzPdZcBl1CGrVRkh-74" target="G_wZUzPdZcBl1CGrVRkh-75" edge="1">
          <mxGeometry relative="1" as="geometry" />
        </mxCell>
        <mxCell id="G_wZUzPdZcBl1CGrVRkh-74" value="&lt;font style=&quot;font-size: 12px;&quot;&gt;กำหนดค่าตัวแปร&amp;nbsp;&lt;span style=&quot;text-align: start;&quot;&gt;score ให้มีค่าเริ่มต้น 100&lt;/span&gt;&lt;/font&gt;" style="rounded=0;whiteSpace=wrap;html=1;" parent="1" vertex="1">
          <mxGeometry x="354" y="-370" width="120" height="60" as="geometry" />
        </mxCell>
        <mxCell id="G_wZUzPdZcBl1CGrVRkh-78" style="edgeStyle=orthogonalEdgeStyle;rounded=0;orthogonalLoop=1;jettySize=auto;html=1;exitX=0.5;exitY=1;exitDx=0;exitDy=0;" parent="1" source="G_wZUzPdZcBl1CGrVRkh-75" target="G_wZUzPdZcBl1CGrVRkh-27" edge="1">
          <mxGeometry relative="1" as="geometry" />
        </mxCell>
        <mxCell id="G_wZUzPdZcBl1CGrVRkh-75" value="&lt;font style=&quot;font-size: 12px;&quot;&gt;แสดง &lt;span style=&quot;text-align: start;&quot;&gt;score ล่าสุด&lt;/span&gt;&lt;/font&gt;" style="shape=parallelogram;perimeter=parallelogramPerimeter;whiteSpace=wrap;html=1;fixedSize=1;" parent="1" vertex="1">
          <mxGeometry x="331" y="-250" width="166" height="60" as="geometry" />
        </mxCell>
        <mxCell id="rgFFl2RwI1l4uznSu4kI-11" style="edgeStyle=orthogonalEdgeStyle;rounded=0;orthogonalLoop=1;jettySize=auto;html=1;exitX=1;exitY=0.5;exitDx=0;exitDy=0;" parent="1" source="rgFFl2RwI1l4uznSu4kI-10" target="G_wZUzPdZcBl1CGrVRkh-44" edge="1">
          <mxGeometry relative="1" as="geometry" />
        </mxCell>
        <mxCell id="rgFFl2RwI1l4uznSu4kI-26" style="edgeStyle=orthogonalEdgeStyle;rounded=0;orthogonalLoop=1;jettySize=auto;html=1;exitX=0.5;exitY=1;exitDx=0;exitDy=0;entryX=0.5;entryY=0;entryDx=0;entryDy=0;" parent="1" source="rgFFl2RwI1l4uznSu4kI-10" target="rgFFl2RwI1l4uznSu4kI-25" edge="1">
          <mxGeometry relative="1" as="geometry" />
        </mxCell>
        <mxCell id="rgFFl2RwI1l4uznSu4kI-10" value="ตรวจสอบ&lt;div&gt;winn_number &amp;lt; 20&lt;/div&gt;" style="rhombus;whiteSpace=wrap;html=1;" parent="1" vertex="1">
          <mxGeometry x="651" y="510" width="177" height="150" as="geometry" />
        </mxCell>
        <mxCell id="rgFFl2RwI1l4uznSu4kI-19" style="edgeStyle=orthogonalEdgeStyle;rounded=0;orthogonalLoop=1;jettySize=auto;html=1;exitX=0.5;exitY=1;exitDx=0;exitDy=0;entryX=0.5;entryY=0;entryDx=0;entryDy=0;" parent="1" source="rgFFl2RwI1l4uznSu4kI-12" target="rgFFl2RwI1l4uznSu4kI-15" edge="1">
          <mxGeometry relative="1" as="geometry" />
        </mxCell>
        <mxCell id="rgFFl2RwI1l4uznSu4kI-12" value="เลขที่ทาย &amp;gt; win_number" style="rhombus;whiteSpace=wrap;html=1;" parent="1" vertex="1">
          <mxGeometry x="542" y="140" width="177" height="150" as="geometry" />
        </mxCell>
        <mxCell id="rgFFl2RwI1l4uznSu4kI-17" style="edgeStyle=orthogonalEdgeStyle;rounded=0;orthogonalLoop=1;jettySize=auto;html=1;exitX=0.5;exitY=1;exitDx=0;exitDy=0;entryX=0.5;entryY=0;entryDx=0;entryDy=0;" parent="1" source="rgFFl2RwI1l4uznSu4kI-13" target="rgFFl2RwI1l4uznSu4kI-16" edge="1">
          <mxGeometry relative="1" as="geometry" />
        </mxCell>
        <mxCell id="rgFFl2RwI1l4uznSu4kI-13" value="เลขที่ทาย &amp;lt; win_number" style="rhombus;whiteSpace=wrap;html=1;" parent="1" vertex="1">
          <mxGeometry x="757" y="140" width="177" height="150" as="geometry" />
        </mxCell>
        <mxCell id="rgFFl2RwI1l4uznSu4kI-58" value="" style="edgeStyle=orthogonalEdgeStyle;rounded=0;orthogonalLoop=1;jettySize=auto;html=1;" parent="1" source="rgFFl2RwI1l4uznSu4kI-14" target="rgFFl2RwI1l4uznSu4kI-57" edge="1">
          <mxGeometry relative="1" as="geometry" />
        </mxCell>
        <mxCell id="rgFFl2RwI1l4uznSu4kI-14" value="แสดง &quot;You win&quot;" style="shape=parallelogram;perimeter=parallelogramPerimeter;whiteSpace=wrap;html=1;fixedSize=1;" parent="1" vertex="1">
          <mxGeometry x="327" y="330" width="173.5" height="60" as="geometry" />
        </mxCell>
        <mxCell id="rgFFl2RwI1l4uznSu4kI-22" style="edgeStyle=orthogonalEdgeStyle;rounded=0;orthogonalLoop=1;jettySize=auto;html=1;exitX=0.5;exitY=1;exitDx=0;exitDy=0;entryX=0;entryY=0.5;entryDx=0;entryDy=0;" parent="1" source="rgFFl2RwI1l4uznSu4kI-15" target="rgFFl2RwI1l4uznSu4kI-21" edge="1">
          <mxGeometry relative="1" as="geometry" />
        </mxCell>
        <mxCell id="rgFFl2RwI1l4uznSu4kI-15" value="แสดง &quot;&lt;span style=&quot;caret-color: rgb(31, 35, 40); color: rgb(31, 35, 40); font-family: var(--fontStack-monospace, ui-monospace, SFMono-Regular, SF Mono, Menlo, Consolas, Liberation Mono, monospace); font-size: 13.6px; text-align: start; background-color: rgb(246, 248, 250);&quot;&gt;Sorry, the winning number is LOWER&quot;&lt;/span&gt;" style="shape=parallelogram;perimeter=parallelogramPerimeter;whiteSpace=wrap;html=1;fixedSize=1;" parent="1" vertex="1">
          <mxGeometry x="543.5" y="330" width="173.5" height="60" as="geometry" />
        </mxCell>
        <mxCell id="rgFFl2RwI1l4uznSu4kI-23" style="edgeStyle=orthogonalEdgeStyle;rounded=0;orthogonalLoop=1;jettySize=auto;html=1;exitX=0.5;exitY=1;exitDx=0;exitDy=0;entryX=1;entryY=0.5;entryDx=0;entryDy=0;" parent="1" source="rgFFl2RwI1l4uznSu4kI-16" target="rgFFl2RwI1l4uznSu4kI-21" edge="1">
          <mxGeometry relative="1" as="geometry" />
        </mxCell>
        <mxCell id="rgFFl2RwI1l4uznSu4kI-16" value="แสดง &quot;&lt;span style=&quot;caret-color: rgb(31, 35, 40); color: rgb(31, 35, 40); font-family: var(--fontStack-monospace, ui-monospace, SFMono-Regular, SF Mono, Menlo, Consolas, Liberation Mono, monospace); font-size: 13.6px; text-align: start; background-color: rgb(246, 248, 250);&quot;&gt;Sorry, the winning number is HIGHER&quot;&lt;/span&gt;" style="shape=parallelogram;perimeter=parallelogramPerimeter;whiteSpace=wrap;html=1;fixedSize=1;" parent="1" vertex="1">
          <mxGeometry x="758.75" y="330" width="173.5" height="60" as="geometry" />
        </mxCell>
        <mxCell id="rgFFl2RwI1l4uznSu4kI-24" style="edgeStyle=orthogonalEdgeStyle;rounded=0;orthogonalLoop=1;jettySize=auto;html=1;exitX=0.5;exitY=1;exitDx=0;exitDy=0;" parent="1" source="rgFFl2RwI1l4uznSu4kI-21" target="rgFFl2RwI1l4uznSu4kI-10" edge="1">
          <mxGeometry relative="1" as="geometry" />
        </mxCell>
        <mxCell id="rgFFl2RwI1l4uznSu4kI-21" value="" style="ellipse;whiteSpace=wrap;html=1;aspect=fixed;" parent="1" vertex="1">
          <mxGeometry x="730" y="430" width="20" height="20" as="geometry" />
        </mxCell>
        <mxCell id="rgFFl2RwI1l4uznSu4kI-39" style="edgeStyle=orthogonalEdgeStyle;rounded=0;orthogonalLoop=1;jettySize=auto;html=1;exitX=0.5;exitY=1;exitDx=0;exitDy=0;entryX=0.5;entryY=0;entryDx=0;entryDy=0;" parent="1" source="rgFFl2RwI1l4uznSu4kI-25" target="rgFFl2RwI1l4uznSu4kI-34" edge="1">
          <mxGeometry relative="1" as="geometry" />
        </mxCell>
        <mxCell id="rgFFl2RwI1l4uznSu4kI-25" value="แสดง &quot;&lt;span style=&quot;caret-color: rgb(31, 35, 40); color: rgb(31, 35, 40); font-family: var(--fontStack-monospace, ui-monospace, SFMono-Regular, SF Mono, Menlo, Consolas, Liberation Mono, monospace); font-size: 13.6px; text-align: start; background-color: rgb(246, 248, 250);&quot;&gt;Guess the winning number (0-20)&quot;&lt;/span&gt;" style="shape=parallelogram;perimeter=parallelogramPerimeter;whiteSpace=wrap;html=1;fixedSize=1;" parent="1" vertex="1">
          <mxGeometry x="659.5" y="700" width="160" height="60" as="geometry" />
        </mxCell>
        <mxCell id="rgFFl2RwI1l4uznSu4kI-38" style="edgeStyle=orthogonalEdgeStyle;rounded=0;orthogonalLoop=1;jettySize=auto;html=1;exitX=0.5;exitY=1;exitDx=0;exitDy=0;" parent="1" source="rgFFl2RwI1l4uznSu4kI-27" edge="1">
          <mxGeometry relative="1" as="geometry">
            <mxPoint x="1080" y="860" as="targetPoint" />
          </mxGeometry>
        </mxCell>
        <mxCell id="rgFFl2RwI1l4uznSu4kI-27" value="แสดง &quot;&lt;span style=&quot;caret-color: rgb(31, 35, 40); color: rgb(31, 35, 40); font-family: var(--fontStack-monospace, ui-monospace, SFMono-Regular, SF Mono, Menlo, Consolas, Liberation Mono, monospace); font-size: 13.6px; text-align: start; background-color: rgb(246, 248, 250);&quot;&gt;Guess the winning number (21-50)&quot;&lt;/span&gt;" style="shape=parallelogram;perimeter=parallelogramPerimeter;whiteSpace=wrap;html=1;fixedSize=1;" parent="1" vertex="1">
          <mxGeometry x="884.5" y="700" width="160" height="60" as="geometry" />
        </mxCell>
        <mxCell id="rgFFl2RwI1l4uznSu4kI-37" style="edgeStyle=orthogonalEdgeStyle;rounded=0;orthogonalLoop=1;jettySize=auto;html=1;exitX=0.5;exitY=1;exitDx=0;exitDy=0;entryX=0.5;entryY=0;entryDx=0;entryDy=0;" parent="1" source="rgFFl2RwI1l4uznSu4kI-29" target="rgFFl2RwI1l4uznSu4kI-34" edge="1">
          <mxGeometry relative="1" as="geometry" />
        </mxCell>
        <mxCell id="rgFFl2RwI1l4uznSu4kI-29" value="แสดง &quot;&lt;span style=&quot;caret-color: rgb(31, 35, 40); color: rgb(31, 35, 40); font-family: var(--fontStack-monospace, ui-monospace, SFMono-Regular, SF Mono, Menlo, Consolas, Liberation Mono, monospace); font-size: 13.6px; text-align: start; background-color: rgb(246, 248, 250);&quot;&gt;Guess the winning number (21-50)&quot;&lt;/span&gt;" style="shape=parallelogram;perimeter=parallelogramPerimeter;whiteSpace=wrap;html=1;fixedSize=1;" parent="1" vertex="1">
          <mxGeometry x="1107.5" y="700" width="160" height="60" as="geometry" />
        </mxCell>
        <mxCell id="rgFFl2RwI1l4uznSu4kI-35" style="edgeStyle=orthogonalEdgeStyle;rounded=0;orthogonalLoop=1;jettySize=auto;html=1;exitX=0.5;exitY=1;exitDx=0;exitDy=0;entryX=0.5;entryY=0;entryDx=0;entryDy=0;" parent="1" source="rgFFl2RwI1l4uznSu4kI-31" target="rgFFl2RwI1l4uznSu4kI-34" edge="1">
          <mxGeometry relative="1" as="geometry" />
        </mxCell>
        <mxCell id="rgFFl2RwI1l4uznSu4kI-31" value="แสดง &quot;&lt;span style=&quot;caret-color: rgb(31, 35, 40); color: rgb(31, 35, 40); font-family: var(--fontStack-monospace, ui-monospace, SFMono-Regular, SF Mono, Menlo, Consolas, Liberation Mono, monospace); font-size: 13.6px; text-align: start; background-color: rgb(246, 248, 250);&quot;&gt;Guess the winning number (81-100)&quot;&lt;/span&gt;" style="shape=parallelogram;perimeter=parallelogramPerimeter;whiteSpace=wrap;html=1;fixedSize=1;" parent="1" vertex="1">
          <mxGeometry x="1326" y="700" width="160" height="60" as="geometry" />
        </mxCell>
        <mxCell id="rgFFl2RwI1l4uznSu4kI-46" style="edgeStyle=orthogonalEdgeStyle;rounded=0;orthogonalLoop=1;jettySize=auto;html=1;exitX=0.5;exitY=1;exitDx=0;exitDy=0;entryX=0.5;entryY=0;entryDx=0;entryDy=0;" parent="1" source="rgFFl2RwI1l4uznSu4kI-34" target="rgFFl2RwI1l4uznSu4kI-45" edge="1">
          <mxGeometry relative="1" as="geometry" />
        </mxCell>
        <mxCell id="rgFFl2RwI1l4uznSu4kI-34" value="" style="ellipse;whiteSpace=wrap;html=1;aspect=fixed;" parent="1" vertex="1">
          <mxGeometry x="1070" y="860" width="20" height="20" as="geometry" />
        </mxCell>
        <mxCell id="rgFFl2RwI1l4uznSu4kI-44" style="edgeStyle=orthogonalEdgeStyle;rounded=0;orthogonalLoop=1;jettySize=auto;html=1;exitX=0.5;exitY=1;exitDx=0;exitDy=0;" parent="1" source="rgFFl2RwI1l4uznSu4kI-42" target="rgFFl2RwI1l4uznSu4kI-43" edge="1">
          <mxGeometry relative="1" as="geometry" />
        </mxCell>
        <mxCell id="rgFFl2RwI1l4uznSu4kI-42" value="แสดง &quot; See you again&quot;" style="shape=parallelogram;perimeter=parallelogramPerimeter;whiteSpace=wrap;html=1;fixedSize=1;" parent="1" vertex="1">
          <mxGeometry x="341" y="1150" width="146" height="60" as="geometry" />
        </mxCell>
        <mxCell id="rgFFl2RwI1l4uznSu4kI-43" value="END" style="ellipse;whiteSpace=wrap;html=1;" parent="1" vertex="1">
          <mxGeometry x="329" y="1260" width="169" height="50" as="geometry" />
        </mxCell>
        <mxCell id="rgFFl2RwI1l4uznSu4kI-47" style="edgeStyle=orthogonalEdgeStyle;rounded=0;orthogonalLoop=1;jettySize=auto;html=1;exitX=0.5;exitY=1;exitDx=0;exitDy=0;entryX=1;entryY=0.5;entryDx=0;entryDy=0;" parent="1" source="rgFFl2RwI1l4uznSu4kI-45" target="G_wZUzPdZcBl1CGrVRkh-49" edge="1">
          <mxGeometry relative="1" as="geometry">
            <Array as="points">
              <mxPoint x="1080" y="990" />
              <mxPoint x="1500" y="990" />
              <mxPoint x="1500" y="-30" />
            </Array>
          </mxGeometry>
        </mxCell>
        <mxCell id="rgFFl2RwI1l4uznSu4kI-45" value="กำหนดค่าตัวแปร&lt;div&gt;score -= 10&lt;/div&gt;" style="rounded=0;whiteSpace=wrap;html=1;" parent="1" vertex="1">
          <mxGeometry x="1020" y="910" width="120" height="60" as="geometry" />
        </mxCell>
        <mxCell id="rgFFl2RwI1l4uznSu4kI-60" style="edgeStyle=orthogonalEdgeStyle;rounded=0;orthogonalLoop=1;jettySize=auto;html=1;exitX=1;exitY=0.5;exitDx=0;exitDy=0;entryX=1;entryY=0.5;entryDx=0;entryDy=0;" parent="1" source="rgFFl2RwI1l4uznSu4kI-57" target="G_wZUzPdZcBl1CGrVRkh-12" edge="1">
          <mxGeometry relative="1" as="geometry">
            <mxPoint x="1571.1764705882354" y="-810" as="targetPoint" />
            <Array as="points">
              <mxPoint x="1550" y="1055" />
              <mxPoint x="1550" y="-934" />
            </Array>
          </mxGeometry>
        </mxCell>
        <mxCell id="rgFFl2RwI1l4uznSu4kI-57" value="" style="ellipse;whiteSpace=wrap;html=1;" parent="1" vertex="1">
          <mxGeometry x="399" y="1040" width="30" height="30" as="geometry" />
        </mxCell>
      </root>
    </mxGraphModel>
  </diagram>
</mxfile>
